# xmcd
#
# Track frame offsets:
#	150
#	18587
#	36710
#	52182
#	78992
#
# Disc length: 1329 seconds
#
# Revision: 1
# Processed by: cddbd v1.5.1PL0 Copyright (c) Steve Scherf et al.
# Submitted via: CDex 1.50Beta5
#
DISCID=41052f05
DTITLE=HUMMING BIRD - EGM LIVE
DYEAR=1900
DGENRE=ROCK
TTITLE0=ハッピー・バースデイ
TTITLE1=ねここしゃん
TTITLE2=君は来ない
TTITLE3=今を生きる人へ
TTITLE4=MAKE A MAP
EXTD=
EXTT0=
EXTT1=
EXTT2=
EXTT3=
EXTT4=
PLAYORDER=
